<svg width="21" height="26" viewBox="0 0 21 26" fill="none" xmlns="http://www.w3.org/2000/svg">
<path d="M18 8H9C7.89543 8 7 9.17095 7 10.6154V22.3846C7 23.8291 7.89543 25 9 25H18C19.1046 25 20 23.8291 20 22.3846V10.6154C20 9.17095 19.1046 8 18 8Z" stroke="#707070" stroke-width="1.5" stroke-linecap="round" stroke-linejoin="round"/>
<path d="M4 18H3C2.46957 18 1.96086 17.7245 1.58579 17.234C1.21071 16.7435 1 16.0783 1 15.3846V3.61538C1 2.92174 1.21071 2.25651 1.58579 1.76603C1.96086 1.27555 2.46957 1 3 1H12C12.5304 1 13.0391 1.27555 13.4142 1.76603C13.7893 2.25651 14 2.92174 14 3.61538V4.92308" stroke="#707070" stroke-width="1.5" stroke-linecap="round" stroke-linejoin="round"/>
</svg>
