<svg width="58" height="60" viewBox="0 0 58 60" fill="none" xmlns="http://www.w3.org/2000/svg">
<mask id="mask0_347_32" style="mask-type:luminance" maskUnits="userSpaceOnUse" x="0" y="0" width="58" height="60">
<path d="M31.9057 -2.95931e-05L0 35.0131L26.0041 59.1778L57.9098 24.1647L31.9057 -2.95931e-05Z" fill="white"/>
</mask>
<g mask="url(#mask0_347_32)">
<path d="M7.97607 26.2598L24.6541 7.95752L25.0942 18.6536L8.41622 36.9559L7.97607 26.2598Z" fill="#D9D9D9"/>
<path d="M9.34912 37.529L19.356 26.5476L20.2504 33.5511L10.2436 44.5325L9.34912 37.529Z" fill="#F2614E"/>
<path d="M10.2441 44.5326L39.9745 11.9067L40.4146 22.6028L21.9238 42.8945L10.2441 44.5326Z" fill="#F2614E"/>
<path d="M21.769 44.6612L31.7758 33.6798L32.6703 40.6833L22.6635 51.6647L21.769 44.6612Z" fill="#D9D9D9"/>
<path d="M22.6636 51.6647L52.3939 19.0388L52.834 29.7349L34.3432 50.0266L22.6636 51.6647Z" fill="#D9D9D9"/>
</g>
</svg>
