<svg width="121" height="41" viewBox="0 0 121 41" fill="none" xmlns="http://www.w3.org/2000/svg">
<path d="M10.5642 3.95892L7.59878 9.75942L11.0793 9.75975L10.6501 3.95893L10.5642 3.95892ZM11.4976 16.001L11.2401 12.5957L6.18054 12.5952L4.42924 16.0003L0.261273 15.9999L8.89947 0.499778L13.7227 0.500238L15.5044 16.0014L11.4976 16.001ZM16.7402 11.4361L20.4892 11.4364C20.6395 12.5107 21.7781 13.2735 23.3143 13.2736C24.7859 13.2738 25.785 12.6508 25.7851 11.6625C25.7852 10.8998 25.3663 10.4701 23.798 9.98655L22.3156 9.53524C19.7376 8.74007 18.3842 7.38643 18.3844 5.27022C18.3847 2.24092 20.9952 0.232379 24.6046 0.232723C28.4073 0.233087 30.8134 2.038 30.8238 5.04582L27.193 5.04547C27.1501 3.94976 26.1834 3.2192 24.6902 3.21906C23.2508 3.21892 22.3913 3.92782 22.3913 4.7872C22.3912 5.54989 22.9175 6.05483 24.3139 6.46316L25.85 6.92523C28.5892 7.73115 29.8137 8.92365 29.8135 11.0936C29.8132 14.1551 27.2349 16.2711 23.2388 16.2707C19.2857 16.2703 16.7722 14.4869 16.7402 11.4361ZM31.2207 11.4375L34.9697 11.4378C35.12 12.512 36.2586 13.2749 37.7947 13.275C39.2664 13.2751 40.2655 12.6522 40.2656 11.6639C40.2657 10.9012 39.8468 10.4715 38.2784 9.98794L36.7961 9.53662C34.218 8.74145 32.8646 7.38781 32.8648 5.2716C32.8651 2.2423 35.4757 0.233762 39.085 0.234107C42.8878 0.23447 45.2939 2.03939 45.3043 5.0472L41.6735 5.04685C41.6306 3.95115 40.6639 3.22059 39.1707 3.22044C37.7312 3.22031 36.8718 3.92921 36.8717 4.78858C36.8716 5.55128 37.398 6.05621 38.7944 6.46455L40.3305 6.92661C43.0697 7.73253 44.2942 8.92503 44.294 11.095C44.2937 14.1565 41.7153 16.2724 37.7193 16.2721C33.7661 16.2717 31.2526 14.4882 31.2207 11.4375ZM56.5829 12.8364L55.9165 16.0052L45.2925 16.0042L48.5919 0.50357L59.2051 0.504583L58.5281 3.67346L51.8572 3.67283L51.2016 6.76651L57.475 6.76711L56.8517 9.66744L50.5783 9.66685L49.9012 12.8357L56.5829 12.8364ZM65.7242 16.0062L61.771 16.0058L64.3933 3.67402L59.9246 3.6736L60.6016 0.504717L73.4815 0.505947L72.8044 3.67483L68.3357 3.6744L65.7242 16.0062ZM80.99 3.43928C78.5515 3.43905 76.6069 6.11367 76.6066 9.41152C76.6064 11.6352 77.7987 13.0747 79.6356 13.0749C82.0848 13.0751 84.0294 10.4113 84.0297 7.10266C84.0299 4.85754 82.8269 3.43946 80.99 3.43928ZM79.5278 16.2761C75.231 16.2756 72.6101 13.4717 72.6105 9.63672C72.611 4.09375 76.3282 0.237665 81.0763 0.238118C85.4591 0.238537 88.0262 3.05324 88.0258 6.87745C88.0253 12.4312 84.2652 16.2765 79.5278 16.2761ZM13.7413 30.4514C13.7521 30.387 13.7414 30.3225 13.7414 30.054C13.6878 28.5393 12.4848 27.4542 10.9057 27.4541C8.3383 27.4538 6.53338 29.9673 6.53304 33.48C6.53283 35.6714 7.64989 37.0143 9.47606 37.0145C11.1196 37.0146 12.441 36.0157 12.9568 34.4045L16.7917 34.4048C16.1791 37.9175 13.1496 40.2697 9.22868 40.2693C5.12517 40.2689 2.48283 37.6906 2.48321 33.7052C2.48376 28.0226 5.96459 24.2309 11.2712 24.2314C14.9236 24.2318 17.5659 26.5524 17.6086 29.8502C17.6193 30.0973 17.5978 30.3014 17.5763 30.4518L13.7413 30.4514ZM27.0619 27.4341C24.6235 27.4339 22.6789 30.1085 22.6786 33.4064C22.6783 35.63 23.8706 37.0696 25.7075 37.0697C28.1567 37.07 30.1013 34.4061 30.1016 31.0975C30.1018 28.8524 28.8989 27.4343 27.0619 27.4341ZM25.5998 40.2709C21.3029 40.2705 18.6821 37.4665 18.6824 33.6316C18.683 28.0886 22.4001 24.2325 27.1482 24.233C31.531 24.2334 34.0981 27.0481 34.0977 30.8723C34.0972 36.426 30.3371 40.2714 25.5998 40.2709ZM40.1025 31.7967L42.5303 31.7969C44.2383 31.7971 45.3448 30.7767 45.345 29.3372C45.3451 28.1341 44.5824 27.4788 43.2397 27.4786L41.0375 27.4784L40.1025 31.7967ZM37.7185 24.5025L44.3249 24.5032C47.5046 24.5035 49.3091 26.3943 49.3089 29.0046C49.3086 31.2497 47.9657 33.3658 45.5486 34.1927L47.3635 40.0044L43.26 40.004L41.6599 34.5791L39.5115 34.5789L38.3615 40.0036L34.4191 40.0032L37.7185 24.5025ZM49.4157 35.4392L53.1647 35.4396C53.315 36.5138 54.4536 37.2766 55.9897 37.2767C57.4614 37.2769 58.4605 36.6539 58.4606 35.6656C58.4606 34.903 58.0417 34.4732 56.4734 33.9897L54.991 33.5384C52.413 32.7432 51.0596 31.3895 51.0598 29.2733C51.0601 26.244 53.6706 24.2355 57.28 24.2358C61.0828 24.2362 63.4888 26.0411 63.4993 29.0489L59.8684 29.0486C59.8256 27.9529 58.8588 27.2223 57.3657 27.2222C55.9262 27.222 55.0668 27.9309 55.0667 28.7903C55.0666 29.553 55.5929 30.0579 56.9894 30.4663L58.5255 30.9283C61.2647 31.7343 62.4891 32.9268 62.4889 35.0967C62.4886 38.1582 59.9103 40.2742 55.9142 40.2738C51.9611 40.2734 49.4476 38.49 49.4157 35.4392ZM72.351 27.9648L69.3856 33.7653L72.866 33.7657L72.4369 27.9648L72.351 27.9648ZM73.2844 40.0069L73.0269 36.6016L67.9673 36.6011L66.216 40.0062L62.048 40.0058L70.6862 24.5057L75.5095 24.5061L77.2912 40.0073L73.2844 40.0069Z" fill="white"/>
<path d="M95.7042 30.4592C95.715 30.3948 95.7042 30.3303 95.7043 30.0618C95.6507 28.5471 94.4477 27.4621 92.8686 27.4619C90.3012 27.4617 88.4963 29.9752 88.4959 33.4879C88.4957 35.6793 89.6128 37.0221 91.439 37.0223C93.0825 37.0225 94.4039 36.0236 94.9197 34.4123L98.7546 34.4127C98.142 37.9253 95.1125 40.2775 91.1916 40.2772C87.0881 40.2768 84.4457 37.6984 84.4461 33.713C84.4466 28.0304 87.9275 24.2388 93.2341 24.2393C96.8865 24.2396 99.5288 26.5602 99.5715 29.858C99.5822 30.1051 99.5607 30.3092 99.5392 30.4596L95.7042 30.4592ZM103.459 40.0098L99.5168 40.0094L102.816 24.5087L106.759 24.5091L103.459 40.0098ZM106.349 35.4446L110.098 35.445C110.249 36.5192 111.387 37.282 112.923 37.2822C114.395 37.2823 115.394 36.6594 115.394 35.6711C115.394 34.9084 114.975 34.4787 113.407 33.9951L111.925 33.5438C109.347 32.7486 107.993 31.395 107.993 29.2788C107.994 26.2495 110.604 24.2409 114.214 24.2413C118.016 24.2416 120.422 26.0466 120.433 29.0544L116.802 29.054C116.759 27.9583 115.792 27.2278 114.299 27.2276C112.86 27.2275 112 27.9364 112 28.7958C112 29.5585 112.527 30.0634 113.923 30.4717L115.459 30.9338C118.198 31.7397 119.423 32.9322 119.423 35.1021C119.422 38.1637 116.844 40.2796 112.848 40.2792C108.895 40.2789 106.381 38.4954 106.349 35.4446Z" fill="#F2614E"/>
</svg>
