<svg width="9" height="18" viewBox="0 0 9 18" fill="none" xmlns="http://www.w3.org/2000/svg">
<path fill-rule="evenodd" clip-rule="evenodd" d="M6.21501 0.0490383C5.45419 0.211593 4.77752 0.705485 4.45432 1.33414C4.22896 1.77252 4.19494 1.9317 4.17141 2.6566L4.15078 3.29398L3.52006 3.31386C2.82817 3.33563 2.50662 3.38945 2.08357 3.55415C1.09849 3.93773 0.371226 4.71937 0.107758 5.67768C0.0374952 5.93328 0.0289717 6.06808 0.0151841 7.14662L0 8.33414L2.0893 8.32506L4.17857 8.31599L4.18896 8.02567C4.1988 7.75111 4.19494 7.73366 4.11733 7.70411C3.80473 7.5851 3.70811 7.52748 3.57231 7.37914C3.33352 7.11823 3.31908 7.03032 3.31908 5.83598C3.31908 4.85695 3.32331 4.78927 3.394 4.63994C3.50133 4.41315 3.64315 4.26221 3.84183 4.16332C4.14315 4.01333 4.16066 4.02592 4.16066 4.39194C4.16066 4.62837 4.14792 4.71381 4.10945 4.73496C4.08131 4.75043 4.03303 4.81059 4.00223 4.86863C3.95578 4.95612 3.94619 5.1249 3.94601 5.85712C3.94586 6.3966 3.96076 6.78228 3.98429 6.84856C4.04646 7.02374 4.15146 7.06719 4.51262 7.06719C4.80531 7.06719 4.83869 7.05997 4.92135 6.97875C4.97087 6.9301 5.02144 6.84107 5.03369 6.78088C5.04593 6.72069 5.05596 6.30092 5.05596 5.84804C5.05596 4.99724 5.03666 4.861 4.90036 4.74998C4.8162 4.68142 4.81226 4.0771 4.89596 4.0771C5.10714 4.0771 5.47399 4.37565 5.59092 4.64269C5.66587 4.81382 5.6681 4.85706 5.65767 5.93468L5.64686 7.0496L5.54841 7.21409C5.41902 7.43029 5.23685 7.57357 4.99734 7.64758L4.80259 7.70777L4.81291 8.01188L4.82318 8.31599H6.90028H8.97737L8.98833 7.41896C9.00795 5.80875 8.8984 5.32442 8.35392 4.61468C7.95304 4.09205 7.39444 3.70777 6.70313 3.47902C6.37452 3.37028 5.84798 3.30366 5.3156 3.30341L4.84109 3.3032V2.79791C4.84109 2.17819 4.87515 1.98605 5.04318 1.65774C5.1952 1.3607 5.52281 1.03552 5.81818 0.888478C6.06131 0.767467 6.43085 0.66489 6.62377 0.66489C6.70818 0.66489 6.8337 0.641708 6.90271 0.61339C7.14322 0.514682 7.18262 0.18813 6.97047 0.0516062C6.86518 -0.0161807 6.52572 -0.0173416 6.21501 0.0490383ZM0.00676829 11.4908C0.00694735 12.9894 0.0220243 14.143 0.0439053 14.3305C0.0966205 14.7827 0.203483 15.163 0.382507 15.5356C0.998651 16.818 2.24842 17.7148 3.75825 17.958C4.18437 18.0267 5.04565 18.0085 5.44989 17.9224C7.04152 17.5834 8.29687 16.5414 8.76532 15.1706C8.97278 14.5636 8.96891 14.6246 8.98507 11.6842L9 8.96677H4.50324H0.00648195L0.00676829 11.4908Z" fill="white"/>
</svg>
