<svg width="14" height="16" viewBox="0 0 14 16" fill="none" xmlns="http://www.w3.org/2000/svg">
<path d="M13.2554 6.69066L2.32009 0.205221C2.08621 0.071506 1.82104 0.000754715 1.55097 6.00468e-06C1.28089 -0.000742706 1.01533 0.0685372 0.780692 0.200953C0.546057 0.333369 0.35053 0.524306 0.213565 0.754766C0.0765991 0.985227 0.00296879 1.24718 0 1.51456V14.4854C0.00296879 14.7528 0.0765991 15.0148 0.213565 15.2452C0.35053 15.4757 0.546057 15.6666 0.780692 15.799C1.01533 15.9315 1.28089 16.0007 1.55097 16C1.82104 15.9992 2.08621 15.9285 2.32009 15.7948L13.2554 9.30934C13.4827 9.17284 13.6707 8.98064 13.8011 8.7513C13.9315 8.52195 14 8.2632 14 8C14 7.7368 13.9315 7.47805 13.8011 7.2487C13.6707 7.01936 13.4827 6.82716 13.2554 6.69066Z" fill="#F2614E"/>
</svg>
