<svg width="19" height="18" viewBox="0 0 19 18" fill="none" xmlns="http://www.w3.org/2000/svg">
<path d="M8.59446 16.9995C8.99612 16.9995 9.32173 16.6584 9.32173 16.2376C9.32173 15.8168 8.99612 15.4757 8.59446 15.4757C8.1928 15.4757 7.86719 15.8168 7.86719 16.2376C7.86719 16.6584 8.1928 16.9995 8.59446 16.9995Z" fill="white" stroke="white" stroke-width="2" stroke-linecap="round" stroke-linejoin="round"/>
<path d="M16.5945 16.9995C16.9961 16.9995 17.3217 16.6584 17.3217 16.2376C17.3217 15.8168 16.9961 15.4757 16.5945 15.4757C16.1928 15.4757 15.8672 15.8168 15.8672 16.2376C15.8672 16.6584 16.1928 16.9995 16.5945 16.9995Z" fill="white" stroke="white" stroke-width="2" stroke-linecap="round" stroke-linejoin="round"/>
<path d="M1 1H3.90908L5.85816 11.2019C5.92467 11.5527 6.10682 11.8678 6.37274 12.092C6.63866 12.3163 6.97139 12.4354 7.3127 12.4286H14.3818C14.7231 12.4354 15.0558 12.3163 15.3217 12.092C15.5876 11.8678 15.7698 11.5527 15.8363 11.2019L16.9999 4.80952H4.63635" fill="white"/>
<path d="M1 1H3.90908L5.85816 11.2019C5.92467 11.5527 6.10682 11.8678 6.37274 12.092C6.63866 12.3163 6.97139 12.4354 7.3127 12.4286H14.3818C14.7231 12.4354 15.0558 12.3163 15.3217 12.092C15.5876 11.8678 15.7698 11.5527 15.8363 11.2019L16.9999 4.80952H4.63635" stroke="white" stroke-width="2" stroke-linecap="round" stroke-linejoin="round"/>
</svg>
