<svg width="24" height="18" viewBox="0 0 24 18" fill="none" xmlns="http://www.w3.org/2000/svg">
<path fill-rule="evenodd" clip-rule="evenodd" d="M16.1555 4.762C16.1555 7.40541 14.159 9.525 11.6692 9.525C9.17943 9.525 7.183 7.40541 7.183 4.762C7.183 2.11757 9.17943 0 11.6692 0C14.159 0 16.1555 2.11757 16.1555 4.762ZM11.669 18C8.01203 18 4.88951 17.3881 4.88951 14.9402C4.88951 12.4913 7.99199 11.8571 11.669 11.8571C15.3259 11.8571 18.4484 12.469 18.4484 14.9179C18.4484 17.3658 15.3459 18 11.669 18ZM18.0725 4.84815C18.0725 6.19569 17.6918 7.45103 17.0238 8.49462C16.955 8.60202 17.0161 8.7469 17.1373 8.76919C17.3043 8.79959 17.477 8.81681 17.6526 8.82188C19.4038 8.87051 20.9756 7.67394 21.4098 5.87248C22.053 3.19665 20.1644 0.794372 17.7595 0.794372C17.498 0.794372 17.248 0.823755 17.0047 0.876441C16.9713 0.884546 16.936 0.900757 16.9169 0.932166C16.894 0.970667 16.9111 1.02234 16.934 1.05578C17.6565 2.13077 18.0725 3.44184 18.0725 4.84815ZM20.973 10.7016C22.1497 10.9458 22.9237 11.4442 23.2443 12.1687C23.5153 12.7634 23.5153 13.4534 23.2443 14.0471C22.7538 15.1708 21.1725 15.5315 20.5579 15.6247C20.431 15.6449 20.3289 15.5284 20.3422 15.3937C20.6562 12.2801 18.1588 10.8039 17.5127 10.4645C17.485 10.4493 17.4793 10.426 17.4822 10.4118C17.4841 10.4017 17.4955 10.3855 17.5165 10.3824C18.9146 10.3551 20.4176 10.5577 20.973 10.7016ZM5.79498 8.82119C5.97057 8.81612 6.14235 8.79991 6.31031 8.7685C6.4315 8.74621 6.49258 8.60132 6.42387 8.49393C5.75585 7.45034 5.37508 6.195 5.37508 4.84745C5.37508 3.44114 5.79116 2.13008 6.51358 1.05508C6.53648 1.02165 6.5527 0.969973 6.53075 0.931472C6.51167 0.901076 6.4754 0.883852 6.44296 0.875747C6.19865 0.823061 5.94862 0.793678 5.68714 0.793678C3.28227 0.793678 1.39368 3.19595 2.03784 5.87179C2.47206 7.67324 4.04381 8.86982 5.79498 8.82119ZM5.96518 10.4114C5.96804 10.4266 5.96232 10.4489 5.9356 10.4651C5.28857 10.8045 2.79113 12.2807 3.1051 15.3932C3.11846 15.529 3.0173 15.6445 2.89038 15.6252C2.2758 15.532 0.694502 15.1713 0.203985 14.0477C-0.0679949 13.453 -0.0679949 12.764 0.203985 12.1693C0.524634 11.4448 1.29763 10.9463 2.4743 10.7011C3.03066 10.5583 4.53275 10.3556 5.93178 10.383C5.95277 10.386 5.96327 10.4023 5.96518 10.4114Z" fill="#A2A2A2"/>
</svg>
